<?xml version="1.0" encoding="UTF-8"?>
<svg id="_레이어_2" data-name="레이어 2" xmlns="http://www.w3.org/2000/svg" viewBox="0 0 84.92 84.92">
  <defs>
    <style>
      .cls-1 {
        fill: #f36d20;
      }

      .cls-2 {
        fill: #f7f8f8;
      }
    </style>
  </defs>
  <g id="Layer_3" data-name="Layer 3">
    <path class="cls-1" d="m84.92,42.46c0,23.45-19.01,42.46-42.46,42.46S0,65.91,0,42.46,19.01,0,42.46,0s42.46,19.01,42.46,42.46Z"/>
    <path class="cls-2" d="m49.65,31.42c0,3.62-2.94,6.56-6.56,6.56s-6.56-2.94-6.56-6.56,2.94-6.56,6.56-6.56,6.56,2.94,6.56,6.56Z"/>
    <path class="cls-2" d="m32.59,31.42c0,3.62-2.94,6.56-6.56,6.56s-6.56-2.94-6.56-6.56,2.94-6.56,6.56-6.56,6.56,2.94,6.56,6.56Z"/>
    <path class="cls-2" d="m66.64,31.42c0,3.62-2.94,6.56-6.56,6.56s-6.56-2.94-6.56-6.56,2.94-6.56,6.56-6.56,6.56,2.94,6.56,6.56Z"/>
    <path class="cls-2" d="m49.65,47.95c0,3.62-2.94,6.56-6.56,6.56s-6.56-2.94-6.56-6.56,2.94-6.56,6.56-6.56,6.56,2.94,6.56,6.56Z"/>
    <path class="cls-2" d="m49.65,64.11c0,3.62-2.94,6.56-6.56,6.56s-6.56-2.94-6.56-6.56,2.94-6.56,6.56-6.56,6.56,2.94,6.56,6.56Z"/>
  </g>
</svg>